<svg version="1" xmlns="http://www.w3.org/2000/svg" width="1365.333" height="1365.333" viewBox="0 0 1024.000000 1024.000000"><path d="M477 1.1C367.7 9.2 267.4 49.7 183.5 119.4c-15.4 12.8-51.4 48.7-63.6 63.6C58.7 257.2 20.7 340.8 6.1 433.7 1.6 462 .6 475.3.6 510c-.1 40.8 1.8 62.1 9 100 11.9 63.1 37.9 127.1 74.1 182.5 19.6 29.9 38.3 52.7 66.2 80.6 36.6 36.6 67.9 60.3 115.1 87.2 10.4 5.9 36.2 18.2 50.8 24.3 86.1 35.9 179.2 47.3 272.2 33.5 99.6-14.8 194.9-60 267.4-126.7 13.9-12.8 35.9-35.3 32.6-33.2-18.2 11-24.7 14.7-36.6 20.6-73.5 37.1-158.1 49-239.4 33.7-103.7-19.5-200.7-83.4-265.3-174.7-78.9-111.6-106.6-255.9-74.2-387.4 23.6-95.8 75.6-177.7 149.1-235 57.2-44.6 127-71.9 200.3-78.5 16.1-1.4 63-.6 76.9 1.4 5.1.7 8.9 1 8.5.6-1.3-1.1-20.7-8.3-35.8-13.3-33.7-11.2-70.4-19-108.5-23.2-17.4-1.8-68.2-2.6-86-1.3z"/><path d="M524.3 156.9c-14.1 5.2-25 17.8-29.8 34.6-1.3 4.4-1.6 8.3-1.3 15.7.4 8.4.9 10.6 3.7 16.2 3.7 7.5 8.6 12.7 15.6 16.4 4.3 2.3 6.2 2.7 13.5 2.7 7.7 0 9.2-.3 15.5-3.4 20.9-10.2 32.4-37.1 25.5-59.2-3.3-10.6-8.6-17.1-17.9-22-6.1-3.2-17.7-3.7-24.8-1zM754.6 226.1c-3.8 3-5.6 7.1-5.6 12.9 0 15.4 14.6 27.4 26 21.5 10.7-5.5 6.8-28-6-34.5-5.2-2.6-11-2.6-14.4.1zM631.1 309.7c-3.7 1.8-8.6 8.7-10.1 14.3-3.4 12.3 1.4 26.6 10.4 31 5.3 2.5 8.6 2.5 13.6 0 15.8-8 16-37.8.3-45.9-3.2-1.6-10.3-1.3-14.2.6zM403 381.3c-8.4 2.8-15.3 6.9-20.4 12.1-21.5 21.6-21.5 55.9.1 77.2 6.6 6.4 18.9 12.9 27.8 14.5 11.1 2.1 26-.6 35.4-6.3 21.2-12.8 31.2-39.9 23.2-62.9-3.2-9.4-6.2-14.2-13-20.9-11.5-11.5-22.2-16-37.5-16-6.7 0-10.8.6-15.6 2.3zM843 386.1c-12.2 3.1-19.5 7.4-29 16.9-13.2 13.1-19 26.5-19 44.2 0 11.8 1.4 17.6 6.7 28.7 3.6 7.6 5.9 10.8 11.7 16.6 12.7 12.4 27.3 18.5 45.1 18.5 17.7 0 31.4-5.7 44.1-18.4 13.6-13.6 20.2-30.4 19.1-48.6-2.6-39.6-40.8-67.8-78.7-57.9zM615.4 489.9c-4.6 2.1-9 7.2-11 12.8-1.6 4.7-1.8 15.3-.2 20.5 1.6 5.4 8.1 12.5 12.5 13.7 11.6 3.2 23.3-9.1 23.3-24.4 0-10.5-6.4-21.4-13.8-23.5-5-1.3-6-1.3-10.8.9zM793.7 608.1c-14.2 3.3-22.1 14.6-21.9 31 .3 26.3 23.5 51.2 47.7 51.3 16.5.1 27.2-10.6 28.3-28 1.6-24.2-17.7-49.3-41.6-54.3-6-1.2-7.2-1.3-12.5 0zM532.2 630c-17.5 2.7-34.2 14.3-39.7 27.4-6.7 15.9-2.3 32 12.5 46.8 13.3 13.1 29.2 19.2 50 19.1 9.8 0 12.7-.4 19.5-2.7 4.4-1.5 10.8-4.6 14.3-6.8 19-12.3 24.3-34.6 12.9-53.6-4.5-7.5-15.9-18-24.2-22.4-13-6.8-31.6-10-45.3-7.8zM718.4 778c-8.8 2-14.4 9.1-14.4 17.9 0 9.7 6.3 17.2 15.6 18.7 7.9 1.2 16.1-3.4 19.5-11.1 6.3-13.8-6.1-29-20.7-25.5z"/></svg>