<?xml version="1.0" encoding="UTF-8" standalone="no"?><!DOCTYPE svg PUBLIC "-//W3C//DTD SVG 1.1//EN" "http://www.w3.org/Graphics/SVG/1.1/DTD/svg11.dtd"><svg width="100%" height="100%" viewBox="0 0 4000 4000" version="1.1" xmlns="http://www.w3.org/2000/svg" xmlns:xlink="http://www.w3.org/1999/xlink" xml:space="preserve" xmlns:serif="http://www.serif.com/" style="fill-rule:evenodd;clip-rule:evenodd;stroke-linejoin:round;stroke-miterlimit:2;"><g><path d="M2117.72,3430c-512.09,0 -927.21,-84.34 -927.21,-188.39c0,-26.1 26.12,-50.96 73.37,-73.57c37.66,87.76 125.98,145.75 222.27,145.75c9.96,-0 20,-0.62 30.07,-1.89l280.23,-35.33c78.17,30.35 172.47,45.62 282.459,45.62c119.351,0 223.851,-14.32 313.091,-42.79l276.78,60.86c17.58,3.87 35.21,5.73 52.65,5.73c100.41,-0 194.2,-61.7 230.58,-157.83c3.07,-8.12 5.91,-16.55 8.5,-25.19c54.2,23.93 84.42,50.57 84.42,78.64c-0,104.05 -415.13,188.39 -927.21,188.39Z" style="fill:#6690e3;fill-rule:nonzero;"/><path d="M1721.66,2301.3c-16.75,27.51 -30.5,57.8 -41.78,88.76c-11.85,32.51 -20.97,65.79 -28.03,97.42c-21.02,94.33 -23.34,173.66 -23.34,173.66c-67.64,142.91 -274.52,70.84 -274.52,70.84c-23.44,-146.15 75.26,-334.19 129.82,-424.49c19.98,-33.08 34.05,-53.02 34.05,-53.02l149.91,34.47l53.89,12.36Z" style="fill:#60547b;fill-rule:nonzero;"/><path d="M1372.65,2716.1c42,11.55 183.64,41.65 235.42,-60.1c1.36,-31.2 11.97,-206.79 82.09,-340.79l-163.12,-37.49c-34.48,52.16 -172.34,272.69 -154.39,438.38Zm91,54.77c-44.26,-0 -86.61,-9.02 -116.43,-19.41c-7.16,-2.49 -12.37,-8.71 -13.57,-16.19c-32.99,-205.58 159.19,-481.05 167.39,-492.68c4.83,-6.83 13.3,-10.09 21.46,-8.2l203.76,46.83c6.45,1.48 11.79,5.97 14.37,12.06c2.57,6.1 2.06,13.06 -1.38,18.71c-82.98,136.69 -90.1,347.65 -90.16,349.76c-0.08,2.84 -0.75,5.64 -1.97,8.21c-36.8,77.75 -112.57,100.91 -183.47,100.91Z" style="fill:#000072;fill-rule:nonzero;"/><path d="M2078.88,3301.58c-641.609,0 -573.349,-524.81 -475.779,-837.29c41.3,-132.48 87.91,-226.77 87.91,-226.77l951.94,12.72c21.37,43.34 49.73,116.59 71.96,204.92c81.3,322.69 81.3,846.42 -636.031,846.42Z" style="fill:#fff;fill-rule:nonzero;"/><path d="M2714.88,2455.18c-62.33,16.8 -107.41,28.64 -116.68,31.12c-1.18,0.31 -1.8,0.46 -1.8,0.46c-504.19,145.22 -827.92,49.2 -944.55,0.72c-32.3,-13.39 -48.73,-23.18 -48.73,-23.18c9.99,-32.1 20.29,-61.92 30.19,-88.71c12.67,-34.46 24.72,-63.93 34.46,-86.65c13.96,-32.66 23.23,-51.41 23.23,-51.41l951.97,12.72c4.02,8.14 8.29,17.36 12.72,27.56c10.67,24.47 22.21,54.45 33.49,88.66c8.96,27.15 17.72,56.93 25.7,88.71Z" style="fill:#60547b;fill-rule:nonzero;"/><path d="M2078.91,3280.98c-98.589,-0 -183.469,-12.72 -254.269,-37.99c4.96,-16.75 11.85,-43.06 17.09,-74.79c61.09,16.26 132.76,25.2 216.55,25.2c114.97,0 211.52,-13.45 292.25,-37.38c2.31,38.7 7.88,70.79 11.7,89.3c-81.36,23.73 -175.91,35.66 -283.321,35.66Z" style="fill:#b2b2d4;fill-rule:nonzero;"/><path d="M1703.99,2258.28c-37.34,80.79 -246.36,560.66 -77.96,831.59c78.82,126.81 231.19,191.11 452.879,191.11c280.281,-0 472.861,-81.2 572.391,-241.32c158.2,-254.53 39.46,-637.69 -21.43,-768.97l-925.88,-12.41Zm374.919,1063.91c-236.929,0 -401.089,-70.86 -487.919,-210.62c-82.52,-132.82 -93.65,-322.29 -33.07,-563.14c44.61,-177.35 111.78,-314.31 114.62,-320.06c3.52,-7.12 10.8,-11.42 18.76,-11.48l951.92,12.76c7.74,0.11 14.77,4.54 18.2,11.49c34.87,70.61 82.34,206.05 101.38,355.34c23.68,185.55 -2.78,346.32 -76.5,464.93c-107.55,173.04 -311.91,260.78 -607.391,260.78Z" style="fill:#000072;fill-rule:nonzero;"/><path d="M1799,3255.48c0,-0 158.34,-440.7 -258.42,-440.64l-58.82,-0c-107.49,-0 -200.54,77.26 -217.45,183.4c-4.55,28.57 -5.09,60.41 0.51,95.48c2.22,13.89 5.06,26.87 8.43,39c29.2,105.2 132.07,172.39 240.39,158.73l285.36,-35.97Z" style="fill:#60547b;fill-rule:nonzero;"/><path d="M1537.84,3051.67c-0,91.44 -50.39,165.56 -112.56,165.56c-62.16,-0 -112.55,-74.12 -112.55,-165.56c-0,-91.44 50.39,-165.57 112.55,-165.57c62.17,-0 112.56,74.13 112.56,165.57Z" style="fill:#fff;fill-rule:nonzero;"/><path d="M1486.09,3272.58c-88.56,0 -169.03,-59.09 -192.98,-145.37c-0.25,-0.89 -0.49,-1.78 -0.73,-2.67c14.07,13.29 29.84,24.67 46.85,33.86c20.65,35.98 51.54,58.83 86.05,58.83c26.87,-0 51.54,-13.84 70.89,-36.95l123.55,-15.58c93.92,-11.84 165.86,-90.49 167.49,-185.13c0.09,-5.18 0.09,-10.4 -0,-15.65c42.36,101.04 8.27,232.96 -3.8,272.76l-272.34,34.33c-8.37,1.05 -16.71,1.57 -24.98,1.57Z" style="fill:#433b78;fill-rule:nonzero;"/><path d="M1425.28,3217.23c-34.51,-0 -65.4,-22.85 -86.05,-58.83c31.74,17.13 67.81,26.63 105.3,26.62c9.22,0 18.55,-0.57 27.9,-1.75l23.74,-2.99c-19.35,23.11 -44.02,36.95 -70.89,36.95Z" style="fill:#b2b2d4;fill-rule:nonzero;"/><path d="M1799,3255.48l0.05,-0l-0.05,-0Zm0,-0l0.05,-0l-0.05,-0Zm-317.25,-420.03c-98.87,-0 -181.76,69.83 -197.08,166.03c-4.55,28.51 -4.38,58.45 0.5,88.99c2.03,12.71 4.7,25.07 7.94,36.74c26.18,94.34 119.93,156.16 217.96,143.8l272.34,-34.33c13.64,-45 55.44,-207.74 -16.92,-310.48c-42.42,-60.22 -118.4,-90.75 -225.82,-90.75l-58.92,-0Zm4.4,478.34c-106.82,-0 -203.83,-71.36 -232.76,-175.56c-3.65,-13.16 -6.65,-27.04 -8.92,-41.26c-5.56,-34.85 -5.73,-69.15 -0.51,-101.97c18.54,-116.33 118.54,-200.76 237.79,-200.76l58.92,-0c121.68,-0 209.02,36.45 259.59,108.35c96.48,137.15 21.38,350.83 18.14,359.86c-2.63,7.3 -9.13,12.51 -16.82,13.48l-285.36,35.97c-10.07,1.27 -20.11,1.89 -30.07,1.89Z" style="fill:#000072;fill-rule:nonzero;"/><path d="M2386,3256.98c0,-0 -120.25,-463.45 304.1,-424.64l59.89,5.47c109.44,10 197.01,97.31 204.35,206.96c1.98,29.51 -0.43,61.99 -9.39,97.18c-3.55,13.93 -7.66,26.88 -12.21,38.92c-39.52,104.4 -150.5,163.25 -259.53,139.27l-287.21,-63.16Z" style="fill:#60547b;fill-rule:nonzero;"/><path d="M2670.87,3073.74c-8.51,93.1 35.91,173.26 99.21,179.04c63.29,5.78 121.5,-65.01 130,-158.11c8.5,-93.11 -35.92,-173.27 -99.21,-179.05c-63.3,-5.78 -121.5,65.01 -130,158.12Z" style="fill:#fff;fill-rule:nonzero;"/><path d="M2721.55,3304.79c-14.54,-0 -29.26,-1.56 -43.92,-4.78l-274.41,-60.34c-7.94,-38.41 -28.1,-160.31 11.39,-257.06c6.12,93.4 73.83,174.5 168.8,195.38l114.34,25.15c17.83,28.4 43.06,46.97 72.33,49.64c2.42,0.23 4.84,0.33 7.24,0.33c38.07,0.01 73.63,-27.32 96.8,-69.93c17.51,-9.82 33.73,-21.96 48.12,-36.16c-2.62,9.16 -5.56,18.06 -8.78,26.55c-30.25,79.94 -108.27,131.22 -191.91,131.22Z" style="fill:#433b78;fill-rule:nonzero;"/><path d="M2777.32,3253.11c-2.4,-0 -4.82,-0.1 -7.24,-0.33c-29.27,-2.67 -54.5,-21.24 -72.33,-49.64l16.67,3.66c16.33,3.6 32.7,5.33 48.87,5.33c39.32,0 77.45,-10.26 110.83,-28.95c-23.17,42.61 -58.73,69.94 -96.8,69.93Z" style="fill:#b2b2d4;fill-rule:nonzero;"/><path d="M2403.22,3239.67l274.41,60.34c98.96,21.75 200.32,-32.6 235.83,-126.44c4.39,-11.6 8.27,-23.95 11.52,-36.71c7.81,-30.67 10.77,-61.19 8.8,-90.71c-6.56,-98 -86.38,-178.75 -185.66,-187.82l-59.89,-5.46c-109.6,-10.02 -189.96,14.05 -238.86,71.56c-83.55,98.25 -55.8,268.52 -46.15,315.24Zm318.21,106.32c-17.44,-0 -35.07,-1.86 -52.65,-5.73l-287.21,-63.15c-7.57,-1.67 -13.57,-7.45 -15.52,-14.95c-2.46,-9.49 -59,-233.82 51.83,-364.32c58.09,-68.4 150.34,-97.34 274.09,-86.01l59.9,5.46c121.2,11.07 215,106.16 223.03,226.11c2.26,33.87 -1.09,68.74 -9.98,103.63c-3.63,14.26 -7.98,28.1 -12.91,41.13c-36.38,96.13 -130.17,157.83 -230.58,157.83Z" style="fill:#000072;fill-rule:nonzero;"/><path d="M2602.17,2975.96c-133.53,-41.94 -157.08,-229.66 -63.26,-354.07c36.16,-47.96 52.7,-95.46 59.29,-135.59c6.49,-39 3.66,-71.1 0.41,-90.21c-2.01,-12.26 -4.22,-19.21 -4.22,-19.21l-19.12,-65.07l80.42,-34l149.24,-63c15.3,24.21 29.11,48.01 41.47,71.35c246.35,463.74 -64.55,746.31 -244.23,689.8Z" style="fill:#60547b;fill-rule:nonzero;"/><path d="M2534.53,2888.23c-3.25,-1.76 -6.4,-3.63 -9.46,-5.6c-3.41,-6.57 -6.41,-13.39 -8.99,-20.41c-10.77,-29.2 -14.38,-61.58 -11.84,-93.51c2.53,-31.98 11.19,-63.65 25.13,-92.74c6.99,-14.54 15.23,-28.5 24.82,-41.48l15.45,-22.69c4.99,-7.72 9.22,-15.95 13.83,-23.91c2.41,-3.93 4.02,-8.3 6.02,-12.45l5.7,-12.61c3.41,-8.56 6.24,-17.38 9.25,-26.08c4.77,-17.83 8.83,-35.86 9.99,-54.21c1.67,-18.26 1.09,-36.65 -1.42,-54.64c-1.32,-8.48 -2.87,-16.87 -4.98,-25.12c14.49,21.4 37.63,72.18 7.75,152.56c0,-0 -28.28,67.16 -53.28,92.16c0,-0 -74.67,116.79 -27.97,240.73Z" style="fill:#bfbbca;fill-rule:nonzero;"/><path d="M2655.01,2959.99c-0.6,-0 -1.19,-0.02 -1.79,-0.05l-11.35,-0.03c-3.76,-0.14 -7.42,-0.84 -11.14,-1.19l-5.58,-0.62c-1.85,-0.24 -3.59,-0.84 -5.4,-1.23l-10.77,-2.57c-14.41,-4.41 -27.92,-11.07 -39.98,-19.78c-8.67,-6.21 -16.54,-13.5 -23.56,-21.64c-4.2,-8.22 -7.83,-16.46 -10.91,-24.65c8.15,4.42 16.91,8.14 26.26,11.08c13.94,4.38 28.75,6.53 44.04,6.53c158.13,-0 367.54,-229.86 201,-591.54c7.92,-4.55 15.69,-9.2 23.29,-13.96c2.58,4.99 5.18,9.97 7.81,14.92c7.27,15.34 14.28,30.79 21.34,46.2l9.33,23.59l4.67,11.8l2.34,5.89l2,6l7.94,24.01c1.3,4.01 2.71,7.99 3.92,12.02l3.24,12.18l6.48,24.36c1.9,8.17 3.35,16.42 5.06,24.62c3.8,16.35 5.26,32.99 7.68,49.5c0.88,8.28 1.23,16.59 1.91,24.88l0.91,12.44l0.06,12.43c0.9,33.18 -2.55,66.23 -9.22,98.37c-6.75,32.14 -17.13,63.43 -31.54,92.7c-14.53,29.17 -32.95,56.32 -54.93,80.05c-5.47,5.94 -11.45,11.37 -17.12,17.11c-6,5.37 -12.26,10.42 -18.36,15.66c-6.57,4.58 -12.92,9.52 -19.61,13.87l-10.23,6.2l-5.11,3.11c-1.72,1 -3.54,1.79 -5.3,2.71c-7.09,3.54 -14.07,7.38 -21.49,10.02c-3.66,1.43 -7.28,3.02 -10.97,4.36l-11.22,3.38l-5.61,1.72c-1.88,0.47 -3.79,0.78 -5.69,1.18l-11.37,2.33c-3.8,0.64 -7.62,0.81 -11.42,1.27c-3.21,0.32 -6.42,0.77 -9.61,0.77Z" style="fill:#433b78;fill-rule:nonzero;"/><path d="M2545.44,2912.88c-7.88,-9.12 -14.69,-19.32 -20.37,-30.25c3.06,1.97 6.21,3.84 9.46,5.6c3.08,8.19 6.71,16.43 10.91,24.65Z" style="fill:#8583af;fill-rule:nonzero;"/><path d="M2598.43,2375.6c7.9,16.72 11.79,34.3 14.58,52.3c2.51,17.99 3.09,36.38 1.42,54.64c-1.16,18.35 -5.22,36.38 -9.99,54.21c-3.01,8.7 -5.84,17.52 -9.25,26.08l-5.7,12.61c-2,4.15 -3.61,8.52 -6.02,12.45c-4.61,7.96 -8.84,16.19 -13.83,23.91l-15.45,22.69c-9.59,12.98 -17.83,26.94 -24.82,41.48c-13.94,29.09 -22.6,60.76 -25.13,92.74c-2.54,31.93 1.07,64.31 11.84,93.51c10.71,29.14 28.69,54.94 52.92,72.3c12.06,8.71 25.57,15.37 39.98,19.78l10.77,2.57c1.81,0.39 3.55,0.99 5.4,1.23l5.58,0.62c3.72,0.35 7.38,1.05 11.14,1.19l11.35,0.03c3.77,0.22 7.59,-0.34 11.4,-0.72c3.8,-0.46 7.62,-0.63 11.42,-1.27l11.37,-2.33c1.9,-0.4 3.81,-0.71 5.69,-1.18l5.61,-1.72l11.22,-3.38c3.69,-1.34 7.31,-2.93 10.97,-4.36c7.42,-2.64 14.4,-6.48 21.49,-10.02c1.76,-0.92 3.58,-1.71 5.3,-2.71l5.11,-3.11l10.23,-6.2c6.69,-4.35 13.04,-9.29 19.61,-13.87c6.1,-5.24 12.36,-10.29 18.36,-15.66c5.67,-5.74 11.65,-11.17 17.12,-17.11c21.98,-23.73 40.4,-50.88 54.93,-80.05c14.41,-29.27 24.79,-60.56 31.54,-92.7c6.67,-32.14 10.12,-65.19 9.22,-98.37l-0.06,-12.43l-0.91,-12.44c-0.68,-8.29 -1.03,-16.6 -1.91,-24.88c-2.42,-16.51 -3.88,-33.15 -7.68,-49.5c-1.71,-8.2 -3.16,-16.45 -5.06,-24.62l-6.48,-24.36l-3.24,-12.18c-1.21,-4.03 -2.62,-8.01 -3.92,-12.02l-7.94,-24.01l-2,-6l-2.34,-5.89l-4.67,-11.8l-9.33,-23.59c-7.06,-15.41 -14.07,-30.86 -21.34,-46.2c-7.98,-15.02 -15.58,-30.23 -23.64,-45.23l-25.76,-44.21l-0.26,-0.45c-5.73,-9.84 -2.4,-22.45 7.43,-28.18c9.54,-5.56 21.73,-2.55 27.68,6.62c38.35,59.37 72.01,122.42 96.42,189.69l8.76,25.37c1.43,4.24 2.97,8.44 4.31,12.71l3.63,12.96l7.24,25.94c2.14,8.72 3.84,17.58 5.78,26.36c4.25,17.5 6.15,35.54 8.94,53.38c1.1,8.97 1.53,18.05 2.29,27.07l1.01,13.56l0.14,13.62c1.08,36.31 -2.52,72.91 -9.85,108.77c-7.36,35.86 -18.91,71.11 -35.41,104.16c-16.55,32.99 -37.59,63.9 -62.94,91.1c-25.29,27.21 -55,50.73 -88.56,68.05c-8.48,4.17 -16.84,8.56 -25.83,11.75c-4.44,1.7 -8.82,3.53 -13.31,5.09l-13.76,4.04l-6.89,1.99c-2.33,0.57 -4.72,0.97 -7.08,1.45l-14.19,2.72c-4.77,0.75 -9.66,1.01 -14.48,1.51c-4.85,0.43 -9.66,1.01 -14.6,0.77l-14.71,-0.23c-4.91,-0.23 -9.83,-1.09 -14.75,-1.65l-7.36,-0.97c-2.45,-0.36 -4.86,-1.12 -7.29,-1.67l-14.53,-3.69c-18.77,-5.95 -36.8,-15 -52.79,-26.8c-32.21,-23.59 -55.22,-57.68 -67.73,-93.88c-12.68,-36.33 -16.09,-74.73 -12.55,-111.94c3.58,-37.27 14.18,-73.58 30.81,-106.88c8.34,-16.64 18.12,-32.57 29.42,-47.38l14.22,-20.17c4.56,-6.79 8.36,-14.02 12.62,-21c4.07,-7.07 7.3,-14.56 11.03,-21.82c3.45,-7.38 6.25,-15.03 9.51,-22.54c2.5,-7.74 5.46,-15.4 7.68,-23.28c2.09,-7.91 4.54,-15.78 6.04,-23.88c3.69,-16.08 5.84,-32.58 7.03,-49.3c1.27,-16.66 1.21,-33.87 -0.26,-50.64l-0.03,-0.37c-0.2,-2.33 1.52,-4.39 3.86,-4.6c1.81,-0.16 3.47,0.86 4.21,2.42Z" style="fill:#000072;fill-rule:nonzero;"/><path d="M1073.41,2106.07c0,-0 28.08,270.52 -246.272,408.33c0,0 12.76,-292.21 246.272,-408.33Z" style="fill:#248943;fill-rule:nonzero;"/><path d="M1071.21,2109.98c-211.1,107.48 -238.45,363.74 -241.286,400.2c138.139,-70.8 196.346,-176.14 220.856,-252.39c23.25,-72.36 21.38,-132.68 20.43,-147.81Zm-246.76,408.56l0.185,-4.25c0.133,-2.94 15.519,-295.02 247.665,-410.46l3.23,-1.61l0.37,3.59c0.07,0.68 6.76,69.13 -20.36,153.51c-25.04,77.88 -84.786,185.73 -227.282,257.31l-3.808,1.91Z" style="fill:#000072;fill-rule:nonzero;"/><path d="M853.317,2475.42c0.205,-1.27 0.417,-2.57 0.639,-3.9c66.179,-62.23 99.697,-133.04 116.462,-193.02c11.694,-18.36 23.746,-36.44 36.472,-54.05c13.13,-18.29 26.679,-36.26 40.63,-53.87c1.02,-1.28 2.04,-2.56 3.06,-3.84c-2.52,24.26 -7.8,54.36 -18.43,86.95c-30.62,93.88 -90.698,168.31 -178.833,221.73Zm128.803,-252.09c1.431,-9.76 2.435,-18.87 3.128,-27.22c6.962,-7.03 14.26,-13.86 21.942,-20.48c-6.73,12.26 -13.288,24.62 -19.664,37.05c-1.825,3.53 -3.627,7.09 -5.406,10.65Z" style="fill:#196051;fill-rule:nonzero;"/><path d="M1090.42,2119.19c-14.5,16.33 -28.98,33.87 -42.9,51.39c-13.951,17.61 -27.5,35.58 -40.63,53.87c-13.196,18.26 -25.667,37.03 -37.767,56.09c-12.033,19.11 -23.2,38.75 -33.713,58.86c-0.291,0.58 -0.999,0.82 -1.581,0.53c-0.531,-0.27 -0.766,-0.9 -0.589,-1.44c7.424,-21.5 15.644,-42.84 24.821,-63.78c9.244,-20.9 18.96,-41.67 29.465,-62.03c10.458,-20.39 21.394,-40.57 32.824,-60.49c11.52,-19.98 23.19,-39.47 36.06,-59.25c6.49,-9.97 19.84,-12.8 29.81,-6.3c9.98,6.49 12.8,19.83 6.31,29.81c-0.57,0.88 -1.19,1.7 -1.87,2.47l-0.24,0.27Z" style="fill:#000072;fill-rule:nonzero;"/><path d="M1052.38,2142.38c-144.199,89.86 -186.841,256.74 -199.063,333.04c88.135,-53.42 148.213,-127.85 178.833,-221.73c14.57,-44.64 19.08,-84.61 20.23,-111.31Zm-225.244,393.5c-4.073,0 -8.135,-1.16 -11.67,-3.45c-6.397,-4.14 -10.123,-11.36 -9.79,-18.97c0.541,-12.45 16.099,-306.25 258.174,-426.629c6.31,-3.131 13.74,-2.98 19.92,0.419c6.17,3.39 10.28,9.591 11.01,16.6c0.31,2.94 7.16,73.13 -21.17,161.28c-26.151,81.33 -88.457,193.93 -236.831,268.46c-3.046,1.53 -6.348,2.29 -9.643,2.29Z" style="fill:#000072;fill-rule:nonzero;"/><path d="M1094.98,2129.97c-0,-0 -248.991,109.43 -464.075,-109.65c0,-0 282.125,-77.19 464.075,109.65Z" style="fill:#248943;fill-rule:nonzero;"/><path d="M635.773,2021.68c109.566,109.81 227.574,133.06 307.607,133.12l0.352,0c75.888,0 132.728,-20.21 146.848,-25.74c-166.813,-168.07 -419.181,-115.83 -454.807,-107.38Zm307.964,138.12l-0.141,0c-81.802,-0.02 -202.764,-23.94 -314.473,-137.74l-2.984,-3.03l4.107,-1.13c2.837,-0.77 285.64,-75.42 466.524,110.33l2.51,2.58l-3.3,1.45c-0.62,0.28 -63.69,27.54 -152.243,27.54Z" style="fill:#000072;fill-rule:nonzero;"/><path d="M1025.77,2127.57c-1.97,-1.59 -3.93,-3.14 -5.92,-4.69c1.93,0.72 3.86,1.44 5.79,2.16c1.46,0.56 2.929,1.11 4.4,1.67c-1.4,0.29 -2.82,0.58 -4.27,0.86Zm-17.27,-39.38c-13.733,-2.67 -27.498,-5.13 -41.285,-7.4c-6.951,-1.16 -13.917,-2.24 -20.891,-3.25c-77.476,-37.37 -158.174,-48.14 -217.549,-49.91c12.222,-0.79 25.339,-1.27 39.15,-1.27c71.007,-0 160.348,12.72 240.575,61.83Z" style="fill:#bddbc6;fill-rule:nonzero;"/><path d="M1087.68,2150.18c-19.98,-8.82 -41.111,-17.24 -62.04,-25.14c-21.04,-7.9 -42.283,-15.3 -63.716,-22.22c-21.423,-6.979 -43.099,-13.12 -64.948,-18.81c-21.871,-5.62 -43.985,-10.24 -66.348,-14.1c-0.645,-0.1 -1.087,-0.7 -0.99,-1.35c0.091,-0.58 0.618,-1 1.192,-1c22.74,0.5 45.572,1.801 68.318,4.14c22.724,2.411 45.471,5.31 68.067,9.09c22.611,3.72 45.165,7.97 67.624,12.76c22.551,4.86 44.661,10.01 67.431,16.22c11.48,3.13 18.25,14.98 15.12,26.46c-3.13,11.48 -14.97,18.25 -26.46,15.12c-1.01,-0.28 -1.98,-0.62 -2.91,-1.02l-0.34,-0.15Z" style="fill:#000072;fill-rule:nonzero;"/><path d="M676.081,2033.32c149.951,129.64 310.649,105.97 377.849,87.69c-129.587,-109.76 -301.428,-99.38 -377.849,-87.69Zm267.656,145.46l-0.146,0c-85.435,-0.03 -211.694,-24.93 -328.013,-143.42c-5.336,-5.43 -7.397,-13.29 -5.41,-20.65c1.987,-7.35 7.72,-13.1 15.068,-15.11c12.021,-3.29 296.509,-78.3 485.134,115.39c4.91,5.04 7.04,12.18 5.69,19.09c-1.35,6.91 -5.99,12.72 -12.44,15.56c-2.71,1.19 -67.38,29.14 -159.883,29.14Z" style="fill:#000072;fill-rule:nonzero;"/><path d="M1583.96,2713.77l-501.01,-548.82c-22.64,-24.8 -35.2,-57.18 -35.2,-90.76l0,-80.4c0,-23.55 28.97,-34.79 44.85,-17.39l590.51,646.86c24.99,27.38 23.06,69.83 -4.32,94.83c-27.38,24.99 -69.84,23.06 -94.83,-4.32Z" style="fill:#59e041;fill-rule:nonzero;"/><path d="M1585.8,2712.08c24.03,26.32 64.98,28.19 91.31,4.16c26.31,-24.02 28.17,-64.98 4.15,-91.3l-590.5,-646.86c-7.94,-8.68 -18.43,-8.8 -25.63,-6.01c-7.19,2.79 -14.87,9.96 -14.87,21.72l0,80.4c0,33.04 12.26,64.67 34.54,89.07l501,548.82Zm47.76,26.02c-18.9,-0 -37.73,-7.62 -51.45,-22.65l-501,-548.82c-23.13,-25.32 -35.85,-58.15 -35.85,-92.44l0,-80.4c0,-11.96 6.92,-22.06 18.06,-26.38c11.14,-4.33 23.07,-1.53 31.13,7.3l590.5,646.86c25.89,28.35 23.88,72.48 -4.47,98.36c-13.33,12.17 -30.15,18.17 -46.92,18.17Z" style="fill:#000072;fill-rule:nonzero;"/><path d="M1568.85,2596.88l-13.51,-1.88l-35.75,-0.07l-93.78,-102.73c11.2,-5.23 20.88,-12.19 29.16,-20.07l113.88,124.75Zm-162.36,-125.85l-187.81,-205.73c11.17,-5.27 20.82,-12.26 29.06,-20.17l189.1,207.15c-8.06,7.82 -18.05,14.61 -30.35,18.75Zm-207.04,-226.8l-95.89,-105.04c-19.18,-21 -31.12,-47.43 -34.32,-75.43l-0,-49.38c1.66,0.23 3.32,0.62 4.95,1.19c2.89,28.67 14.93,55.801 34.52,77.261l121.05,132.599c-8.02,7.82 -17.99,14.63 -30.31,18.8Z" style="fill:#3e9c50;fill-rule:nonzero;"/><path d="M1171.93,2275.44l-0.41,-0c-7.42,-0.03 -13.41,-6.06 -13.38,-13.47c0.02,-7.4 6.03,-13.38 13.42,-13.38c0.11,0.01 0.25,-0 0.37,-0c69.85,-0 87.27,-74.29 87.98,-77.45c1.62,-7.22 8.77,-11.79 16,-10.2c7.23,1.6 11.8,8.72 10.22,15.96c-7.45,34.12 -40.9,98.54 -114.2,98.54Z" style="fill:#000072;fill-rule:nonzero;"/><path d="M1379.46,2502.14l-0.41,0c-7.41,-0.02 -13.4,-6.05 -13.37,-13.47c0.02,-7.4 6.03,-13.38 13.42,-13.38l0.36,0c70.27,0 87.82,-76.65 87.99,-77.42c1.58,-7.25 8.73,-11.84 15.98,-10.25c7.24,1.58 11.83,8.73 10.25,15.98c-7.45,34.12 -40.91,98.54 -114.22,98.54Z" style="fill:#000072;fill-rule:nonzero;"/><path d="M1645.46,2613.88l-13.85,-8.27l-16.84,-2.34l-140.73,-154.17c3.06,-4.68 5.78,-9.41 8.14,-14.08l163.28,178.86Z" style="fill:#cdf6c6;fill-rule:nonzero;"/><path d="M1455.07,2428.32l-188.33,-206.3c3.06,-4.69 5.76,-9.44 8.11,-14.12l187.49,205.38c-1.83,4.49 -4.22,9.66 -7.27,15.04Zm-207.19,-226.96l-163.18,-178.75c-3.11,-3.41 -6.72,-5.71 -10.51,-7.04c-0.45,-4.47 -0.68,-8.98 -0.68,-13.5l0,-12.65c0.08,-0.01 0.16,-0.01 0.23,-0.01c1.67,0 2.62,1.06 3,1.47l178.31,195.33c-1.79,4.51 -4.14,9.72 -7.17,15.15Z" style="fill:#cdf6c6;fill-rule:nonzero;"/><path d="M1074.19,2015.57c-1.63,-0.57 -3.29,-0.96 -4.95,-1.19l-0,-20.59c-0,-0.73 -0,-2.96 2.75,-4.03c0.56,-0.21 1.07,-0.32 1.52,-0.34l0,12.65c0,4.52 0.23,9.03 0.68,13.5Z" style="fill:#c5e1ca;fill-rule:nonzero;"/><path d="M1266.74,2222.02l-18.86,-20.66c3.03,-5.43 5.38,-10.64 7.17,-15.15l19.8,21.69c-2.35,4.68 -5.05,9.43 -8.11,14.12Z" style="fill:#b2b2d4;fill-rule:nonzero;"/><path d="M1474.04,2449.1l-18.97,-20.78c3.05,-5.38 5.44,-10.55 7.27,-15.04l19.84,21.74c-2.36,4.67 -5.08,9.4 -8.14,14.08Z" style="fill:#b2b2d4;fill-rule:nonzero;"/><path d="M1599.82,2699.29c16.97,18.59 45.9,19.9 64.49,2.93c18.59,-16.96 19.9,-45.89 2.93,-64.48l-590.5,-646.86c-0.49,-0.54 -1.98,-2.18 -4.75,-1.12c-2.75,1.07 -2.75,3.3 -2.75,4.03l-0,80.4c-0,28.29 10.5,55.38 29.58,76.28l501,548.82Zm33.75,57.79c-24.05,-0 -48.02,-9.71 -65.48,-28.83l-501,-548.82c-26.32,-28.83 -40.81,-66.2 -40.81,-105.24l0,-80.4c0,-19.67 11.84,-36.97 30.18,-44.08c18.32,-7.11 38.75,-2.33 52.01,12.2l590.5,646.86c32.94,36.09 30.38,92.24 -5.7,125.18c-16.96,15.49 -38.36,23.13 -59.7,23.13Z" style="fill:#000072;fill-rule:nonzero;"/><path d="M1371.69,2560.34c-0,-0 -97.94,279.45 138.13,378.98c147.54,62.21 211.34,3.97 238.45,-48.46c15.32,-29.64 21.07,-63.21 18.95,-96.51c-15.86,-249.49 -316.1,-191.9 -316.1,-191.9l-79.43,-42.11Z" style="fill:#60547b;fill-rule:nonzero;"/><path d="M1767,2865.03c-2.09,-1.88 -4.21,-3.73 -6.38,-5.53c5.97,-21.03 8,-43.14 6.6,-65.15c-3.47,-54.6 -20.57,-94.5 -45.15,-123.51c0.01,-0.39 0.01,-0.78 0.02,-1.18l25.52,28.9l21.94,68.38c0,-0 -2.05,77.96 3.1,81.66c1.63,1.18 -1.13,7.86 -5.65,16.43Z" style="fill:#fff;fill-rule:nonzero;"/><path d="M1739.49,2910.36c0.72,-2.51 1.37,-5.02 1.97,-7.54c0.69,-1.11 1.36,-2.21 2.02,-3.32c0.63,0.6 1.25,1.2 1.87,1.81c-3.49,5.46 -5.86,9.05 -5.86,9.05Z" style="fill:#bfbbca;fill-rule:nonzero;"/><path d="M1745.35,2901.31c-0.62,-0.61 -1.24,-1.21 -1.87,-1.81c1.71,-2.88 3.3,-5.77 4.79,-8.64c5.2,-10.06 9.29,-20.57 12.35,-31.36c2.17,1.8 4.29,3.65 6.38,5.53c-6.16,11.65 -15.59,26.78 -21.65,36.28Z" style="fill:#9999c7;fill-rule:nonzero;"/><path d="M1620.01,2609.01c-16.33,-4.57 -32.83,-7.6 -48.76,-9.5l-2.4,-2.63l45.92,6.39l5.24,5.74Zm-113.57,-12.02l-1.91,-2.09l15.06,0.03l1.62,1.78c-5.11,0.01 -10.06,0.11 -14.77,0.28Z" style="fill:#bdf3b3;fill-rule:nonzero;"/><path d="M1571.25,2599.51c-17.17,-2.05 -33.69,-2.81 -48.71,-2.81c-0.44,-0 -0.88,-0 -1.33,0.01l-1.62,-1.78l35.75,0.07l13.51,1.88l2.4,2.63Z" style="fill:#b2d7b9;fill-rule:nonzero;"/><path d="M1650.82,2619.75c-10.09,-4.28 -20.42,-7.83 -30.81,-10.74l-5.24,-5.74l16.84,2.34l13.85,8.27l5.36,5.87Z" style="fill:#ebfbe8;fill-rule:nonzero;"/><path d="M1722.07,2670.84c-19.92,-23.5 -44.76,-39.85 -71.25,-51.09l-5.36,-5.87l57.83,34.49l18.8,21.29c-0.01,0.4 -0.01,0.79 -0.02,1.18Zm-227.92,-73.26l6.53,-2.68l3.85,0l1.91,2.09c-4.29,0.15 -8.39,0.35 -12.29,0.59Z" style="fill:#9999c7;fill-rule:nonzero;"/><path d="M1741.46,2902.82c1.43,-6.08 2.52,-12.19 3.31,-18.31c13.79,-27.63 21.68,-64.91 19.78,-114.97c0,0 -4.54,27.31 -20.28,56.65c-8.37,-64.97 -38.61,-118.93 -38.61,-118.93c-59.34,-95.14 -231.02,-101.65 -231.02,-101.65l19.51,-8.03c3.9,-0.24 8,-0.44 12.29,-0.59c4.71,-0.17 9.66,-0.27 14.77,-0.28c0.45,-0.01 0.89,-0.01 1.33,-0.01c15.02,-0 31.54,0.76 48.71,2.81c15.93,1.9 32.43,4.93 48.76,9.5c10.39,2.91 20.72,6.46 30.81,10.74c26.49,11.24 51.33,27.59 71.25,51.09c24.58,29.01 41.68,68.91 45.15,123.51c1.4,22.01 -0.63,44.12 -6.6,65.15c-3.06,10.79 -7.15,21.3 -12.35,31.36c-1.49,2.87 -3.08,5.76 -4.79,8.64c-0.66,1.11 -1.33,2.21 -2.02,3.32Z" style="fill:#bfbbca;fill-rule:nonzero;"/><path d="M1361.82,2773.61c-1.91,-6.37 -3.56,-12.72 -4.97,-18.98c0.23,0.07 0.45,0.14 0.68,0.21c1.21,6.25 2.64,12.51 4.29,18.77Z" style="fill:#597ed4;fill-rule:nonzero;"/><path d="M1357.53,2754.84c-0.23,-0.07 -0.45,-0.14 -0.68,-0.21c-17.25,-77.01 1.98,-143.9 2.69,-146.34c-7.1,37.06 -12.76,91.21 -2.01,146.55Z" style="fill:#000072;fill-rule:nonzero;"/><path d="M1606.55,2959.87c-34.99,-0 -61.91,-7.55 -61.91,-7.55c-113.13,-41.41 -162.79,-112.12 -182.82,-178.71c-1.65,-6.26 -3.08,-12.52 -4.29,-18.77c-10.75,-55.34 -5.09,-109.49 2.01,-146.55c0.02,-0.05 0.02,-0.07 0.02,-0.07c8.41,117.93 55.25,224.02 213.17,277.88c22.73,7.75 42.84,11.09 60.63,11.09c59.15,-0.01 92.62,-36.88 110.91,-71c2.43,18.86 3.02,38.65 0.5,58.32c-30.98,62.05 -91.73,75.37 -138.22,75.36Z" style="fill:#433b78;fill-rule:nonzero;"/><path d="M1744.77,2884.51c2.52,-19.67 1.93,-39.46 -0.5,-58.32c15.74,-29.34 20.28,-56.65 20.28,-56.65c1.9,50.06 -5.99,87.34 -19.78,114.97Z" style="fill:#8583af;fill-rule:nonzero;"/><path d="M1450.63,2599.87c12.29,-6.35 25.15,-10.44 38.23,-13.47c13.1,-3.04 26.44,-4.85 39.86,-5.54c13.43,-0.73 26.95,-0.4 40.42,1.06c13.49,1.2 26.96,3.37 40.37,6.15c26.7,5.95 53.44,14.77 77.82,29.4c24.29,14.44 46.68,33.89 62.7,57.98c16.24,23.89 26.85,51.07 32.48,78.53c3.09,13.78 4.38,27.49 5.67,41.44c0.86,14.2 0.44,28.56 -1.5,42.83c-3.78,28.47 -13.7,56.9 -30.19,81.27c-8.31,12.19 -17.93,23.9 -29.71,33.61c-2.72,2.65 -6.02,4.66 -9.04,6.97c-3.1,2.24 -6.13,4.56 -9.53,6.33l-10,5.62c-3.42,1.66 -6.97,3.05 -10.47,4.56c-6.93,3.3 -14.33,4.83 -21.54,7.07c-3.63,1.05 -7.32,1.43 -10.99,2.15c-3.66,0.58 -7.35,1.38 -11.01,1.73c-7.29,0.38 -14.68,1.21 -21.91,1.08c-7.17,-0.36 -14.47,-0.33 -21.54,-1.11c-28.53,-2.6 -55.19,-10.56 -80.85,-19.78c-51.18,-18.01 -101.45,-49.7 -135.73,-95.6c-17.19,-22.73 -30.3,-48.46 -38.96,-75.2c-8.67,-26.77 -13.42,-54.39 -15.1,-81.86c-1.45,-27.48 -0.12,-54.84 3.58,-81.71c1.82,-13.45 4.34,-26.77 7.36,-39.98c1.5,-6.61 3.18,-13.19 4.97,-19.76c1.89,-6.69 3.69,-12.86 6.22,-20.12c3.75,-10.74 15.49,-16.42 26.23,-12.67c10.56,3.67 16.22,15.07 12.87,25.66l-0.2,0.64c-1.6,5.02 -3.31,11.32 -4.78,17.13c-1.45,5.97 -2.82,11.98 -4.03,18.03c-2.45,12.11 -4.38,24.33 -5.77,36.58c-2.97,24.48 -3.7,49.13 -2.02,73.34c1.85,24.18 6.12,47.96 13.64,70.43c7.45,22.49 18.62,43.31 32.58,61.92c14.03,18.59 31.29,34.68 50.82,47.96c9.63,6.82 20.14,12.52 30.76,17.99l16.33,7.6l17.16,6.66c22.89,8.44 46.32,15.53 69.49,17.73c23.09,2.45 45.97,0.89 65.71,-7.31c39.81,-15.01 67.21,-57.71 73.69,-102.9c1.75,-11.37 2.28,-23.02 1.76,-34.67c-0.96,-11.84 -1.85,-23.98 -4.29,-35.54c-4.49,-23.26 -12.44,-45.44 -24.9,-64.74c-12.22,-19.49 -29.56,-35.3 -49.33,-47.8c-19.79,-12.63 -42.71,-20.92 -66.31,-26.8c-23.74,-5.87 -48.47,-7.93 -73.36,-10.05c-24.96,-2.31 -50.22,-3.95 -76.67,-7.69l-0.12,-0.01c-1.49,-0.21 -2.54,-1.6 -2.32,-3.09c0.12,-0.91 0.7,-1.65 1.45,-2.05Z" style="fill:#000072;fill-rule:nonzero;"/><path d="M1614.64,2366.4c-40.56,-14.74 -77.97,-31.7 -111.65,-50.61c7.45,-12.28 13.99,-22.62 19.18,-30.62c32.43,16.85 67.87,31.82 106.34,44.91c-4.47,11.34 -9.12,23.49 -13.87,36.32Z" style="fill:#433b78;fill-rule:nonzero;"/><path d="M1502.99,2315.79c-5.34,-3 -10.59,-6.05 -15.75,-9.15c7.24,-11.92 13.67,-22.07 18.87,-30.1c5.26,2.92 10.63,5.81 16.06,8.63c-5.19,8 -11.73,18.34 -19.18,30.62Z" style="fill:#000072;fill-rule:nonzero;"/><path d="M2166.07,2444.93c-23.55,0 -47.5,-0.35 -71.83,-1.06c-160.09,-4.62 -299.27,-23.54 -413.68,-56.21c-8.85,-2.52 -17.72,-5.17 -26.53,-7.94c4.86,-13.16 9.61,-25.58 14.16,-37.12c118.04,34.5 261.63,52.97 430.2,55.22c11.09,0.14 22.09,0.22 33.02,0.22c172.95,0 324.68,-18.49 453.01,-55.11l8.93,30.42c-1.88,0.57 -3.17,2.4 -2.99,4.43l0.03,0.37c0.51,5.73 0.84,11.52 1.02,17.33c-121.27,32.86 -264.05,49.45 -425.34,49.45Z" style="fill:#433b78;fill-rule:nonzero;"/><path d="M1654.03,2379.72c-6.69,-2.11 -13.34,-4.27 -19.92,-6.5c-6.57,-2.22 -13.06,-4.49 -19.47,-6.82c4.75,-12.83 9.4,-24.98 13.87,-36.32c12.89,4.39 26.11,8.56 39.68,12.52c-4.55,11.54 -9.3,23.96 -14.16,37.12Z" style="fill:#000072;fill-rule:nonzero;"/><path d="M2604.83,2391.75c-1.79,-5.46 -3.9,-10.85 -6.4,-16.15c-0.69,-1.45 -2.17,-2.43 -3.84,-2.43c-0.12,0 -0.25,0 -0.37,0.01c-0.3,0.03 -0.59,0.09 -0.87,0.17l-8.93,-30.42c40.71,-11.62 79.05,-25.06 114.99,-40.32c28.38,-12.06 55.31,-25.25 80.74,-39.56c1.2,2.22 2.39,4.44 3.56,6.65c7.18,13.51 13.85,26.88 20.01,40.05c-35.52,20.41 -74.18,38.63 -115.44,54.39c-26.32,10.06 -54.36,19.34 -83.45,27.61Z" style="fill:#433b78;fill-rule:nonzero;"/><path d="M2803.72,2309.75c-6.16,-13.17 -12.83,-26.54 -20.01,-40.05c-1.17,-2.21 -2.36,-4.43 -3.56,-6.65c7.35,-4.14 14.58,-8.37 21.68,-12.69l11.46,19.67c4.61,8.57 9.07,17.22 13.53,25.86c-7.54,4.72 -15.25,9.34 -23.1,13.86Z" style="fill:#2f2976;fill-rule:nonzero;"/><path d="M2591.41,2395.48c-0.18,-5.81 -0.51,-11.6 -1.02,-17.33l-0.03,-0.37c-0.18,-2.03 1.11,-3.86 2.99,-4.43c0.28,-0.08 0.57,-0.14 0.87,-0.17c0.12,-0.01 0.25,-0.01 0.37,-0.01c1.67,0 3.15,0.98 3.84,2.43c2.5,5.3 4.61,10.69 6.4,16.15c-2.29,0.65 -4.59,1.3 -6.89,1.93c-2.17,0.61 -4.34,1.2 -6.53,1.8Zm235.41,-99.59c-4.46,-8.64 -8.92,-17.29 -13.53,-25.86l-11.46,-19.67c5.37,-3.27 10.67,-6.6 15.9,-9.97c8.99,15.06 17.49,30.09 25.41,44.95c-5.36,3.57 -10.79,7.08 -16.32,10.55Z" style="fill:#000072;fill-rule:nonzero;"/><path d="M1612.91,2371.09c-40.86,-14.85 -78.56,-31.94 -112.5,-51.02c0.87,-1.45 1.73,-2.88 2.58,-4.28c33.68,18.91 71.09,35.87 111.65,50.61c-0.57,1.55 -1.15,3.12 -1.73,4.69Z" style="fill:#4d4775;fill-rule:nonzero;"/><path d="M1500.41,2320.07c-6.09,-3.42 -12.06,-6.9 -17.9,-10.45l-2.14,-1.29l1.3,-2.14c7.7,-12.75 14.56,-23.6 20.08,-32.1c1.45,0.82 2.89,1.63 4.36,2.45c-5.2,8.03 -11.63,18.18 -18.87,30.1c5.16,3.1 10.41,6.15 15.75,9.15c-0.85,1.4 -1.71,2.83 -2.58,4.28Z" style="fill:#0a0d6e;fill-rule:nonzero;"/><path d="M2166.04,2449.93c-23.6,0 -47.58,-0.35 -71.95,-1.06c-160.5,-4.64 -300.1,-23.61 -414.9,-56.4c-8.97,-2.55 -17.96,-5.25 -26.89,-8.06c0.58,-1.58 1.15,-3.13 1.73,-4.69c8.81,2.77 17.68,5.42 26.53,7.94c114.41,32.67 253.59,51.59 413.68,56.21c24.33,0.71 48.28,1.06 71.83,1.06c161.29,0 304.07,-16.59 425.34,-49.45c0.05,1.71 0.09,3.43 0.11,5.15c-121.44,32.77 -264.26,49.3 -425.48,49.3Z" style="fill:#4d4775;fill-rule:nonzero;"/><path d="M1652.3,2384.41c-6.64,-2.09 -13.25,-4.24 -19.79,-6.45c-6.61,-2.23 -13.14,-4.52 -19.6,-6.87c0.58,-1.57 1.16,-3.14 1.73,-4.69c6.41,2.33 12.9,4.6 19.47,6.82c6.58,2.23 13.23,4.39 19.92,6.5c-0.58,1.56 -1.15,3.11 -1.73,4.69Z" style="fill:#0a0d6e;fill-rule:nonzero;"/><path d="M2606.31,2396.53c-0.47,-1.6 -0.96,-3.19 -1.48,-4.78c29.09,-8.27 57.13,-17.55 83.45,-27.61c41.26,-15.76 79.92,-33.98 115.44,-54.39c0.72,1.53 1.41,3.02 2.11,4.55c-35.64,20.45 -74.41,38.71 -115.76,54.51c-26.42,10.1 -54.57,19.41 -83.76,27.72Z" style="fill:#4d4775;fill-rule:nonzero;"/><path d="M2805.83,2314.3c-0.7,-1.53 -1.39,-3.02 -2.11,-4.55c7.85,-4.52 15.56,-9.14 23.1,-13.86c0.77,1.48 1.54,2.97 2.3,4.45c-7.6,4.76 -15.37,9.41 -23.29,13.96Z" style="fill:#393673;fill-rule:nonzero;"/><path d="M2591.52,2400.63c-0.02,-1.72 -0.06,-3.44 -0.11,-5.15c2.19,-0.6 4.36,-1.19 6.53,-1.8c2.3,-0.63 4.6,-1.28 6.89,-1.93c0.52,1.59 1.01,3.18 1.48,4.78c-2.34,0.66 -4.68,1.32 -7.03,1.97c-2.58,0.72 -5.16,1.43 -7.76,2.13Zm237.6,-100.29c-0.76,-1.48 -1.53,-2.97 -2.3,-4.45c5.53,-3.47 10.96,-6.98 16.32,-10.55c-7.92,-14.86 -16.42,-29.89 -25.41,-44.95c1.4,-0.91 2.8,-1.81 4.19,-2.73c9.48,15.86 18.41,31.7 26.69,47.33l1.06,1.98l-1.87,1.26c-6.11,4.11 -12.34,8.15 -18.68,12.11Z" style="fill:#0a0d6e;fill-rule:nonzero;"/><path d="M1821.95,1131.65c-3.95,160.79 -137.5,287.94 -298.3,284c-73.22,-1.8 -139.56,-30.54 -189.65,-76.46c-59.87,-54.81 -96.55,-134.28 -94.4,-221.84c3.95,-160.855 137.5,-288.005 298.36,-284.055c71.17,1.749 135.71,28.854 185.27,72.53c62.4,54.985 100.92,136.205 98.72,225.825Z" style="fill:#60547b;fill-rule:nonzero;"/><path d="M1530.71,835.707c-155.99,0 -284.76,124.91 -288.61,281.703c-2.05,83.44 32.06,163.6 93.59,219.93c51.45,47.17 118.23,74.09 188.03,75.81c159.11,3.86 291.82,-122.4 295.73,-281.56c2.1,-85.62 -33.57,-167.223 -97.87,-223.891c-50.73,-44.705 -115.96,-70.241 -183.69,-71.903c-2.4,-0.059 -4.8,-0.089 -7.18,-0.089Zm0.2,582.523c-2.45,-0 -4.87,-0.03 -7.32,-0.08c-71,-1.75 -138.93,-29.14 -191.28,-77.12c-62.59,-57.3 -97.29,-138.86 -95.21,-223.74c3.98,-161.949 138.8,-290.416 300.92,-286.495c68.89,1.692 135.26,27.673 186.87,73.154c65.41,57.647 101.7,140.661 99.56,227.761l-2.5,-0.06l2.5,0.06c-3.92,159.47 -134.91,286.52 -293.54,286.52Z" style="fill:#000072;fill-rule:nonzero;"/><path d="M1367.93,1362.92c-11.28,-7.71 -22.06,-16.24 -32.24,-25.58c-1.94,-1.78 -3.87,-3.59 -5.76,-5.42c57.81,-140.08 159.02,-297.07 335.69,-402.428c12.03,7.493 23.46,15.834 34.23,24.947c-54.64,34.323 -105.56,74.941 -151.07,121.051c-83.04,84.16 -144.15,182.03 -180.85,287.43Z" style="fill:#433b78;fill-rule:nonzero;"/><path d="M1367.55,1364.02c-13.69,-8.87 -26.58,-18.86 -38.55,-29.83c0.31,-0.76 0.62,-1.51 0.93,-2.27c1.89,1.83 3.82,3.64 5.76,5.42c10.18,9.34 20.96,17.87 32.24,25.58c-0.12,0.37 -0.25,0.73 -0.38,1.1Zm366.62,-448.054c-3.56,-3.473 -7.2,-6.853 -10.94,-10.141c-1.81,-1.603 -3.66,-3.186 -5.51,-4.743c0.16,-0.083 0.35,-0.174 0.51,-0.257c5.5,4.846 10.82,9.899 15.94,15.141Z" style="fill:#000072;fill-rule:nonzero;"/><path d="M1745.17,927.879c-3.56,-4.073 -7.23,-8.044 -11,-11.913c3.89,3.799 7.68,7.711 11.35,11.72c-0.11,0.064 -0.23,0.129 -0.35,0.193Z" style="fill:#9999c7;fill-rule:nonzero;"/><path d="M1254.38,1040.79c36.07,-118.967 146.82,-205.083 276.33,-205.083c2.38,0 4.78,0.03 7.18,0.089c64.95,1.594 127.61,25.145 177.38,66.506c-17.18,8.608 -33.72,17.691 -49.65,27.19c-42.65,-26.563 -92.73,-42.414 -146.59,-43.737c-2.45,-0.06 -4.86,-0.089 -7.29,-0.089c-111.18,0 -208.37,62.624 -257.36,155.124Z" style="fill:#bfbbca;fill-rule:nonzero;"/><path d="M1248.65,1052.21c32.25,-126.386 146.79,-219.004 282.02,-219.004c2.42,0 4.85,0.029 7.29,0.089c68.55,1.684 130.97,26.896 179.76,67.787c-0.83,0.408 -1.63,0.809 -2.45,1.22c-49.77,-41.361 -112.43,-64.912 -177.38,-66.506c-2.4,-0.059 -4.8,-0.089 -7.18,-0.089c-129.51,0 -240.26,86.116 -276.33,205.083c-1.99,3.75 -3.9,7.57 -5.73,11.42Z" style="fill:#9999c7;fill-rule:nonzero;"/><path d="M1699.85,954.439c-10.77,-9.113 -22.2,-17.454 -34.23,-24.947c15.93,-9.499 32.47,-18.582 49.65,-27.19c2.13,1.766 4.23,3.566 6.31,5.397c7.64,6.734 14.87,13.816 21.69,21.219c-14.71,8.074 -29.18,16.58 -43.42,25.521Z" style="fill:#b4b1c9;fill-rule:nonzero;"/><path d="M1743.27,928.918c-6.82,-7.403 -14.05,-14.485 -21.69,-21.219c-2.08,-1.831 -4.18,-3.631 -6.31,-5.397c0.82,-0.411 1.62,-0.812 2.45,-1.22c1.85,1.557 3.7,3.14 5.51,4.743c3.74,3.288 7.38,6.668 10.94,10.141c3.77,3.869 7.44,7.84 11,11.913c-0.63,0.342 -1.27,0.696 -1.9,1.039Z" style="fill:#9999c7;fill-rule:nonzero;"/><path d="M1530.69,853.82c-146.19,0 -266.87,117.063 -270.48,264.01c-3.67,149.19 114.73,273.55 263.93,277.22c149.03,3.75 273.55,-114.74 277.21,-263.93c1.78,-72.27 -24.7,-140.911 -74.55,-193.272c-49.84,-52.358 -117.1,-82.17 -189.38,-83.945c-2.24,-0.056 -4.5,-0.083 -6.73,-0.083Zm0.29,582.52c-2.62,0 -5.23,-0.03 -7.86,-0.09c-171.91,-4.23 -308.33,-147.52 -304.11,-319.43c4.22,-171.916 147.32,-308.405 319.43,-304.118c83.28,2.046 160.77,36.396 218.21,96.728c57.44,60.335 87.95,139.42 85.91,222.7c-2.05,83.28 -36.41,160.77 -96.74,218.22c-58.43,55.62 -134.46,85.99 -214.84,85.99Z" style="fill:#000072;fill-rule:nonzero;"/><path d="M2528.82,1100.67c0.11,173.82 141.12,314.64 314.95,314.52c79.16,-0.06 151.56,-29.39 206.86,-77.71c66.1,-57.67 107.78,-142.58 107.72,-237.24c-0.12,-173.886 -141.13,-314.702 -315.01,-314.583c-76.94,0.053 -147.38,27.672 -202.05,73.579c-68.82,57.798 -112.54,144.544 -112.47,241.434Z" style="fill:#60547b;fill-rule:nonzero;"/><path d="M2531.32,1100.67c0.12,172.09 140.16,312.02 312.23,312.02l0.22,-0c75.49,-0.05 148.38,-27.43 205.22,-77.1c67.97,-59.3 106.92,-145.09 106.86,-235.35c-0.12,-172.125 -140.2,-312.084 -312.3,-312.084l-0.21,0c-73.26,0.051 -144.44,25.974 -200.44,72.996c-70.97,59.597 -111.64,146.898 -111.58,239.518Zm312.23,317.02c-174.84,-0 -317.11,-142.16 -317.23,-317.02c-0.07,-94.1 41.26,-182.797 113.36,-243.346c56.9,-47.776 129.22,-74.117 203.66,-74.168l0.21,0c174.87,0 317.18,142.187 317.3,317.084c0.07,91.71 -39.51,178.87 -108.57,239.12c-57.75,50.46 -131.8,78.28 -208.51,78.33l-0.22,-0Z" style="fill:#000072;fill-rule:nonzero;"/><path d="M3009.03,1343.75c-16.75,-39.43 -35.2,-76.44 -54.53,-110.19c-81.99,-143.16 -180.37,-246.293 -299,-312.967c1.62,-1.412 3.25,-2.812 4.89,-4.191c11.19,-9.395 23.04,-18.023 35.47,-25.807c181.76,113.805 286.48,277.805 346.73,426.455c-10.62,9.77 -21.83,18.68 -33.56,26.7Z" style="fill:#433b78;fill-rule:nonzero;"/><path d="M3090.02,939.982c-57.28,-59.874 -137.95,-97.16 -227.36,-97.16l-0.23,0c-61.19,0.042 -118.27,17.523 -166.57,47.773c-11.36,-7.108 -23.04,-14.04 -35.01,-20.74c51.74,-41.173 115.41,-63.539 182.53,-63.586l0.2,0c103.03,0 193.88,53.264 246.44,133.713Z" style="fill:#bfbbca;fill-rule:nonzero;"/><path d="M2655.5,920.593c-10.21,-5.736 -20.56,-11.202 -31.07,-16.401c3.55,-3.957 7.22,-7.832 11.01,-11.622c8.09,-8.107 16.58,-15.687 25.41,-22.715c11.97,6.7 23.65,13.632 35.01,20.74c-12.43,7.784 -24.28,16.412 -35.47,25.807c-1.64,1.379 -3.27,2.779 -4.89,4.191Z" style="fill:#b4b1c9;fill-rule:nonzero;"/><path d="M2843.58,806.269l-0.2,0c-78.58,0.056 -152.43,30.703 -207.94,86.301c-55.53,55.596 -86.07,129.49 -86.02,208.06c0.05,78.57 30.7,152.42 86.3,207.94c55.55,55.47 129.36,86.01 207.85,86.01l0.21,0c78.57,-0.05 152.42,-30.7 207.94,-86.29c55.52,-55.6 86.06,-129.49 86.01,-208.06c-0.11,-162.133 -132.05,-293.961 -294.15,-293.961Zm-0.01,629.531c-89.5,0 -173.64,-34.82 -236.97,-98.07c-63.39,-63.3 -98.33,-147.49 -98.39,-237.07c-0.06,-89.58 34.76,-173.827 98.06,-237.214c63.3,-63.386 147.5,-98.327 237.08,-98.388l0.23,0c184.83,0 335.24,150.285 335.36,335.142c0.07,89.58 -34.76,173.82 -98.06,237.21c-63.3,63.38 -147.49,98.33 -237.07,98.39l-0.24,0Z" style="fill:#000072;fill-rule:nonzero;"/><path d="M1348.58,1625.05c-0,0 -373.585,737.22 750.08,752.16c1138.83,15.15 1058.26,-748.77 837.96,-1133.41c-208.51,-364.039 -498.8,-421.878 -861.981,-394.131c-381.109,29.119 -740.039,353.221 -726.059,775.381Z" style="fill:#fff;fill-rule:nonzero;"/><path d="M2223.26,846.007c-47.94,0 -97.4,2.256 -148.43,6.156c-359.47,27.465 -738.39,330.737 -723.75,772.797l0.02,0.64l-0.29,0.58c-1.32,2.6 -130.26,262.53 -2.58,473.47c107.34,177.32 359.83,269.87 750.46,275.06c11.3,0.15 22.57,0.23 33.67,0.23c434.97,0.01 723.04,-114.95 856.64,-341.93c148.41,-252.17 63.37,-582.07 -54.55,-787.96c-179.64,-313.642 -416.27,-399.043 -711.19,-399.043Zm-91.82,1533.92c-10.85,0 -21.79,-0.07 -32.81,-0.22c-392.49,-5.22 -646.41,-98.59 -754.69,-277.51c-126.16,-208.45 -4.74,-463.68 2.12,-477.7c-6.4,-198.46 70.16,-388.89 215.61,-536.29c136.92,-138.743 323.82,-226.594 512.78,-241.033c209.45,-15.999 360.59,-0.486 490.09,50.31c153.27,60.12 275.69,172.993 374.25,345.073c118.58,207.06 204.02,538.97 54.51,792.99c-63.83,108.45 -165.09,192.69 -300.97,250.39c-146.96,62.41 -335.53,93.99 -560.89,93.99Z" style="fill:#000072;fill-rule:nonzero;"/><path d="M1768.32,1809.31c-0,0 33.79,-139.7 110.35,-239.98c41.46,-54.29 44.5,-130.04 3.55,-184.72c-26.04,-34.77 -69.63,-61.23 -142.45,-56.91c-194.19,11.51 -316.91,264.42 -311.86,415.43c5.06,151.01 98.58,216.51 159.75,218.29c61.17,1.77 155.89,-22.02 180.66,-152.11Z" style="fill:#60547b;fill-rule:nonzero;"/><path d="M2386.19,1824.4c-0,-0 -49.81,-147.29 -144.54,-248.75c-51.3,-54.94 -61.08,-136.05 -19.49,-198.11c26.45,-39.47 73.38,-71.44 155.86,-72.74c219.94,-3.46 379.52,258.19 386.48,420.79c6.95,162.6 -93.02,240.58 -161.84,247.47c-68.83,6.89 -177.64,-10.94 -216.47,-148.66Z" style="fill:#60547b;fill-rule:nonzero;"/><path d="M2133,2356.84c-11.26,-0 -22.61,-0.08 -34.07,-0.23c-383.8,-5.11 -631.11,-94.65 -735.08,-266.13c-15.46,-25.51 -26.99,-51.81 -35.34,-78.29c88.23,131.99 287.25,242.1 703.05,247.63c10.58,0.14 20.95,0.21 31.31,0.21c1044.16,-0.05 967.53,-711.96 761.22,-1072.17c-58.74,-102.55 -124.33,-179.41 -196.58,-236.087c110.09,59.787 207.12,155.427 291.23,302.277c115.51,201.68 199.13,524.3 54.65,769.77c-130.04,220.95 -412.65,333.02 -840.39,333.02Z" style="fill:#b2b2d4;fill-rule:nonzero;"/><path d="M1894.19,1943.46c-111.86,-46.72 -94.33,-117.7 -72.36,-157.59c2.78,-5.05 7.69,-7.46 12.58,-7.46c5.91,-0 11.79,3.53 13.81,10.19c7.56,24.92 25.68,55.8 69.11,60.73c2.57,0.29 5.01,0.43 7.36,0.43c66.02,0 49.61,-111.05 49.61,-111.05l65.25,-1.03l64.95,-1.02c0,-0 -29.65,99.79 50.04,106.49c2.32,0.2 4.59,0.29 6.8,0.29c47.54,-0 70.71,-43.67 81.18,-74.75c2.22,-6.59 8.08,-10 14.01,-10c5.07,-0 10.19,2.49 13.14,7.65c22.59,39.62 45.93,112.17 -46.97,158.69l-181.15,-60.56l-147.36,78.99Z" style="fill:#b2b2d4;fill-rule:nonzero;"/><path d="M2160.22,1643.9c-44.83,-24.75 -122.49,-22.07 -122.49,-22.07c-0,0 -77.7,-0.23 -121.73,25.91c-14.65,8.7 -20.37,27.21 -13.86,42.96c13.65,33.02 49.73,88.26 138.04,86.87c88.32,-1.39 122.63,-57.73 135.24,-91.16c6.02,-15.95 -0.28,-34.27 -15.2,-42.51Z" style="fill:#000072;fill-rule:nonzero;"/><path d="M2057.81,1759.37c0.359,2.91 0.49,4.69 0.68,6.97l0.37,6.36c0.18,4.21 0.269,8.39 0.14,12.57c-0.22,8.36 -0.861,16.73 -2.101,25.13c-2.52,16.73 -7.27,33.75 -15.689,49.87c-4.27,8.03 -9.51,15.77 -15.65,22.89c-6.07,7.21 -13.56,13.31 -21.38,18.6c-7.89,5.32 -16.51,9.1 -25.16,12.24c-8.71,2.76 -17.54,4.84 -26.24,5.63c-17.63,1.73 -33.65,0.86 -50.52,-1.94c-8.4,-1.51 -16.82,-3.75 -25.1,-7.09c-8.27,-3.24 -16.43,-7.52 -23.82,-13.17c-14.86,-11.1 -26.42,-27.61 -30.34,-45.05c-3.86,-17.48 -2.09,-34.79 5.92,-49.99c1.29,-2.45 4.33,-3.39 6.79,-2.1c1.33,0.7 2.21,1.9 2.54,3.25l0.17,0.71c6.95,28.93 15.32,52.74 34.95,64.47c4.81,3.02 10.29,5.27 16.14,6.93c2.84,0.96 5.98,1.45 8.98,2.14c3.15,0.43 6.23,1.01 9.46,1.3c12.75,1.24 26.93,0.9 38.95,-1.26c6.16,-1.03 11.85,-2.83 17.33,-4.78c5.25,-2.33 10.34,-4.8 14.69,-8.15c8.81,-6.52 15.77,-15.22 21,-25.76c4.99,-10.65 8.63,-22.75 10.35,-35.62c0.94,-6.41 1.55,-12.97 1.77,-19.56c0.09,-3.3 0.19,-6.6 0.13,-9.87l-0.13,-4.85l-0.25,-4.21l-0.09,-1.41c-0.77,-12.77 8.95,-23.75 21.72,-24.52c12.26,-0.74 22.87,8.26 24.39,20.27Z" style="fill:#000072;fill-rule:nonzero;"/><path d="M2057.83,1757.9l-0.151,4.53l0.011,5.22c0.07,3.51 0.27,7.05 0.51,10.57c0.479,7.07 1.42,14.07 2.75,20.88c2.53,13.68 7.06,26.49 13.38,37.44c3.13,5.53 6.89,10.44 11.11,14.79c2.02,2.29 4.42,4.12 6.63,6.21c2.48,1.73 4.76,3.75 7.47,5.21c10.33,6.61 22.99,10.28 36.6,12.13c13.44,1.74 28.79,1.58 42.76,-0.14c3.56,-0.35 6.89,-1.15 10.38,-1.64c3.27,-0.87 6.78,-1.41 9.89,-2.53c6.51,-1.86 12.48,-4.52 17.89,-7.79c10.99,-6.46 18.66,-16.1 24.35,-27.93c5.73,-11.81 9.36,-26.32 12.01,-41.79l0.1,-0.61c0.47,-2.74 3.06,-4.57 5.8,-4.11c1.52,0.27 2.79,1.22 3.51,2.46c4.65,8.14 7.04,16.61 8.26,25.67c1.1,9.01 0.78,18.45 -1.5,27.75c-4.28,18.75 -17.03,36.07 -32.78,47.46c-7.86,5.78 -16.38,10.38 -25.06,13.75c-4.34,1.93 -8.73,3.08 -13.12,4.6c-4.38,1.09 -8.82,2.46 -13.22,3.18c-17.74,3.34 -34.73,4.73 -53.29,3.68c-18.29,-1.12 -37.481,-5.7 -54.93,-15.44c-4.44,-2.25 -8.49,-5.22 -12.65,-8c-3.911,-3.12 -7.911,-6.18 -11.381,-9.78c-7.169,-6.96 -13.419,-14.78 -18.479,-23.08c-10.39,-16.55 -16.41,-34.62 -19.99,-52.44c-1.75,-8.96 -2.82,-17.92 -3.38,-26.89c-0.31,-4.49 -0.36,-8.98 -0.33,-13.5c0.02,-2.26 0.09,-4.54 0.18,-6.84c0.13,-2.45 0.21,-4.36 0.52,-7.5c1.24,-12.73 12.56,-22.04 25.29,-20.81c12.22,1.19 21.29,11.67 20.909,23.76l-0.049,1.53Z" style="fill:#000072;fill-rule:nonzero;"/><path d="M2034.28,1765.45c0,-0 0.69,4.68 0.86,12.25c-0.37,-3.96 -0.64,-8.03 -0.86,-12.25Z" style="fill:#222a66;fill-rule:nonzero;"/><path d="M2032.65,1777.93c-0.37,-3.99 -0.65,-8.09 -0.87,-12.35l4.97,-0.49c0.03,0.19 0.72,4.92 0.89,12.56l-4.99,0.28Z" style="fill:#000072;fill-rule:nonzero;"/><path d="M2220.21,1957.64c-8.1,58.76 -40.46,130.58 -149.96,132.3c-41.42,0.651 -73.15,-8.589 -97.44,-23.349c-84.84,-51.581 -79.19,-170.381 -79.19,-170.381c134.07,20.15 142.61,-82.36 141.52,-118.51c16.2,178.37 184.54,104.06 184.54,104.06c-0,0 6.22,34.73 0.53,75.88Z" style="fill:#000072;fill-rule:nonzero;"/><path d="M2220.21,1957.64c-8.1,58.76 -40.46,130.58 -149.96,132.3c-41.42,0.651 -73.15,-8.589 -97.44,-23.349c0,-0 56.05,-183.841 247.4,-108.951Z" style="fill:#ff4379;fill-rule:nonzero;"/><path d="M1912.22,1916.39c2.12,27.8 10.87,79.64 45.65,115.43c26.59,27.36 64.34,40.85 112.12,40.1c45.66,-0.72 80.13,-14.79 102.48,-41.84c31.4,-37.99 33.32,-93.64 31.61,-123.82c-29.85,8.66 -83.27,17.87 -126.451,-8.79c-16.559,-10.23 -29.839,-24.51 -39.769,-42.75c-5.19,10.42 -12.05,20.49 -21.1,29.44c-24.65,24.37 -59.78,35.15 -104.54,32.23Zm153.939,191.62c-56.209,0 -101.389,-17.23 -134.349,-51.26c-60.22,-62.19 -56.4,-157.36 -56.21,-161.38c0.24,-5.1 2.63,-9.85 6.57,-13.08c3.96,-3.24 9.07,-4.65 14.12,-3.89c43.09,6.47 75.08,-0.17 95,-19.76c23.97,-23.59 26.3,-61.32 25.84,-79.81c-0.37,-4.07 -0.65,-8.23 -0.86,-12.48c-0.47,-9.64 6.72,-17.94 16.32,-18.84c9.6,-0.9 18.22,5.92 19.549,15.48c0.111,0.77 0.801,6.01 1.04,14.12c4.2,44.33 18.771,74.47 43.391,89.67c45.57,28.14 115.13,-1.23 115.81,-1.54c5.07,-2.23 10.87,-2.02 15.76,0.58c4.88,2.6 8.3,7.3 9.27,12.75c0.78,4.34 18.36,107.14 -37.01,174.33c-29.38,35.65 -73.06,54.18 -129.85,55.08c-1.47,0.02 -2.93,0.03 -4.391,0.03Z" style="fill:#000072;fill-rule:nonzero;"/><path d="M2082.32,1652.75c0.4,8.21 -30.651,16.38 -69.35,18.27c-38.7,1.88 -70.39,-3.24 -70.79,-11.45c-0.4,-8.2 30.65,-16.38 69.35,-18.26c38.69,-1.89 70.389,3.24 70.79,11.44Z" style="fill:#fff;fill-rule:nonzero;"/><path d="M2027.86,1643.4c-5.06,-0 -10.46,0.12 -16.21,0.4c-44.36,2.16 -67.18,11.34 -66.98,15.65c0.22,4.31 23.85,11.24 68.18,9.07c18.54,-0.9 35.88,-3.27 48.819,-6.68c15.061,-3.97 18.21,-7.82 18.151,-8.96c-0.181,-3.76 -18.08,-9.48 -51.96,-9.48Zm-29.97,30.47c-25.41,0 -57.66,-2.9 -58.21,-14.18c-0.66,-13.73 46.63,-19.66 71.72,-20.88c25.09,-1.23 72.739,0.1 73.41,13.82c0.27,5.5 -6.881,10.1 -21.87,14.04c-13.261,3.5 -30.97,5.93 -49.85,6.84c-4.47,0.22 -9.68,0.36 -15.2,0.36Z" style="fill:#000072;fill-rule:nonzero;"/><path d="M1366.97,1634.35c-1.27,2.51 -125.64,254.04 -3.12,456.13c103.97,171.48 351.28,261.02 735.08,266.13c446.83,6.05 740.99,-106.02 874.46,-332.79c144.48,-245.47 60.86,-568.09 -54.65,-769.77c-204.12,-356.39 -484.42,-411.197 -842.53,-383.834c-351.16,26.832 -721.33,322.794 -707.03,754.154c0.11,3.46 -0.65,6.89 -2.21,9.98Zm764.44,763.69c-10.93,0 -21.93,-0.08 -33.02,-0.22c-399.16,-5.31 -658.21,-101.62 -769.94,-286.24c-125.99,-208.18 -18.92,-452.54 -0.62,-491c-5.26,-201.85 73.08,-395.24 220.95,-545.09c139.94,-141.802 331.04,-231.601 524.28,-246.368c212.32,-16.222 365.92,-0.334 498.09,51.509c157.26,61.685 282.66,177.129 383.35,352.929c121,211.27 207.85,550.47 54.41,811.17c-65.85,111.87 -169.97,198.63 -309.5,257.88c-149.21,63.36 -340.18,95.43 -568,95.43Z" style="fill:#000072;fill-rule:nonzero;"/><path d="M2544.57,1520.65c-15.99,5.7 -32.15,12.19 -47.19,19.39c-15.14,7.25 -29.47,15.4 -42.85,24.44l-4.96,3.44c-1.69,1.11 -3.37,2.21 -4.89,3.5l-9.43,7.37c-3.11,2.47 -5.91,5.28 -8.89,7.87c-1.46,1.33 -2.94,2.64 -4.44,3.91l-4.06,4.28c-11.43,10.88 -20.26,23.86 -28.97,36.95l-28.9,-30.35c1.41,-0.68 2.33,-1.05 3.32,-1.48c1.01,-0.44 1.97,-0.82 2.9,-1.18c1.89,-0.72 3.8,-1.44 5.66,-2.04c3.74,-1.31 7.48,-2.37 11.21,-3.44c7.47,-2.08 15.05,-3.53 22.63,-4.72c15.18,-2.31 30.61,-2.67 45.82,-1.19c3.8,0.3 7.58,0.74 11.34,1.47c3.75,0.67 7.51,1.2 11.2,2.1c7.38,1.93 14.7,3.75 21.69,6.69c14.22,4.92 27.18,12.75 39.05,21.24c3.38,2.42 4.16,7.12 1.75,10.5c-1.81,2.54 -4.91,3.61 -7.77,2.97l-0.87,-0.2c-6.72,-1.5 -13,-3.69 -19.52,-4.96c-6.54,-1.22 -12.87,-2.69 -19.37,-3.31c-6.38,-1.05 -12.89,-1.05 -19.23,-1.55c-3.19,-0.1 -6.4,0.07 -9.57,0.03c-3.16,-0.08 -6.33,0.11 -9.5,0.42c-12.62,0.7 -25.11,2.71 -37.25,5.79c-3.04,0.74 -6.03,1.68 -9.03,2.49l-8.85,2.89c-2.89,1.05 -5.8,2.08 -8.55,3.28c-1.42,0.55 -2.73,1.18 -4.06,1.77c-0.69,0.29 -1.33,0.58 -1.9,0.87l-1.43,0.7l-0.85,0.41c-10.75,5.27 -23.74,0.82 -29.01,-9.93c-3.36,-6.85 -2.69,-14.74 0.96,-20.83l7.69,-12.62l3.91,-6.28c1.37,-2.06 2.99,-3.93 4.48,-5.89l9.18,-11.63c3.26,-3.7 6.85,-7.09 10.28,-10.62l5.21,-5.24l5.67,-4.7c3.83,-3.05 7.53,-6.3 11.49,-9.14c8.11,-5.44 16.14,-10.95 24.84,-15.2c17.12,-8.94 35.19,-15.52 53.66,-19.49c18.56,-3.87 37.05,-5.67 56.29,-3.7c4.16,0.43 7.19,4.15 6.76,8.31c-0.3,3 -2.32,5.41 -4.98,6.37l-0.67,0.24Z" style="fill:#000072;fill-rule:nonzero;"/><path d="M1698.94,1474.45c-53.41,-8.64 -106.3,43.65 -118.13,116.8c-11.84,73.15 21.86,139.45 75.27,148.09c53.41,8.64 106.3,-43.65 118.14,-116.8c11.83,-73.15 -21.87,-139.45 -75.28,-148.09Z" style="fill:#000072;fill-rule:nonzero;"/><path d="M1690.44,1508.67c-20.47,-3.31 -40.08,12.71 -43.81,35.79c-3.74,23.08 9.82,44.47 30.29,47.78c20.46,3.31 40.08,-12.71 43.81,-35.79c3.74,-23.08 -9.83,-44.47 -30.29,-47.78Z" style="fill:#fff;fill-rule:nonzero;"/><path d="M1637.99,1692.66c-1.45,-0 -2.92,-0.12 -4.39,-0.35c-14.88,-2.41 -24.99,-16.43 -22.59,-31.31c2.17,-13.4 13.76,-22.94 26.92,-22.94c1.44,0 2.91,0.12 4.39,0.36c14.88,2.4 24.99,16.42 22.58,31.3c-2.17,13.4 -13.75,22.94 -26.91,22.94Z" style="fill:#4d4d9d;fill-rule:nonzero;"/></g></svg>